<svg id="visual" viewBox="0 0 900 300" width="900" height="300" xmlns="http://www.w3.org/2000/svg" xmlns:xlink="http://www.w3.org/1999/xlink" version="1.1"><path d="M0 192L21.5 193.3C43 194.7 86 197.3 128.8 197.3C171.7 197.3 214.3 194.7 257.2 193.2C300 191.7 343 191.3 385.8 193.8C428.7 196.3 471.3 201.7 514.2 198.8C557 196 600 185 642.8 181.5C685.7 178 728.3 182 771.2 182.3C814 182.7 857 179.3 878.5 177.7L900 176L900 301L878.5 301C857 301 814 301 771.2 301C728.3 301 685.7 301 642.8 301C600 301 557 301 514.2 301C471.3 301 428.7 301 385.8 301C343 301 300 301 257.2 301C214.3 301 171.7 301 128.8 301C86 301 43 301 21.5 301L0 301Z" fill="#a7f3d0"></path><path d="M0 207L21.5 205.3C43 203.7 86 200.3 128.8 203.5C171.7 206.7 214.3 216.3 257.2 217.5C300 218.7 343 211.3 385.8 206.7C428.7 202 471.3 200 514.2 200.2C557 200.3 600 202.7 642.8 203C685.7 203.3 728.3 201.7 771.2 205.3C814 209 857 218 878.5 222.5L900 227L900 301L878.5 301C857 301 814 301 771.2 301C728.3 301 685.7 301 642.8 301C600 301 557 301 514.2 301C471.3 301 428.7 301 385.8 301C343 301 300 301 257.2 301C214.3 301 171.7 301 128.8 301C86 301 43 301 21.5 301L0 301Z" fill="#7fc7a8"></path><path d="M0 229L21.5 228C43 227 86 225 128.8 224C171.7 223 214.3 223 257.2 225.5C300 228 343 233 385.8 236.7C428.7 240.3 471.3 242.7 514.2 245.2C557 247.7 600 250.3 642.8 249.5C685.7 248.7 728.3 244.3 771.2 239.5C814 234.7 857 229.3 878.5 226.7L900 224L900 301L878.5 301C857 301 814 301 771.2 301C728.3 301 685.7 301 642.8 301C600 301 557 301 514.2 301C471.3 301 428.7 301 385.8 301C343 301 300 301 257.2 301C214.3 301 171.7 301 128.8 301C86 301 43 301 21.5 301L0 301Z" fill="#589d82"></path><path d="M0 267L21.5 267.3C43 267.7 86 268.3 128.8 267.3C171.7 266.3 214.3 263.7 257.2 259.2C300 254.7 343 248.3 385.8 248.7C428.7 249 471.3 256 514.2 259.7C557 263.3 600 263.7 642.8 261C685.7 258.3 728.3 252.7 771.2 252.5C814 252.3 857 257.7 878.5 260.3L900 263L900 301L878.5 301C857 301 814 301 771.2 301C728.3 301 685.7 301 642.8 301C600 301 557 301 514.2 301C471.3 301 428.7 301 385.8 301C343 301 300 301 257.2 301C214.3 301 171.7 301 128.8 301C86 301 43 301 21.5 301L0 301Z" fill="#32745d"></path><path d="M0 262L21.5 263.8C43 265.7 86 269.3 128.8 270.2C171.7 271 214.3 269 257.2 271C300 273 343 279 385.8 280.3C428.7 281.7 471.3 278.3 514.2 274.7C557 271 600 267 642.8 268.8C685.7 270.7 728.3 278.3 771.2 282.2C814 286 857 286 878.5 286L900 286L900 301L878.5 301C857 301 814 301 771.2 301C728.3 301 685.7 301 642.8 301C600 301 557 301 514.2 301C471.3 301 428.7 301 385.8 301C343 301 300 301 257.2 301C214.3 301 171.7 301 128.8 301C86 301 43 301 21.5 301L0 301Z" fill="#064e3b"></path></svg>