<svg id="visual" viewBox="0 0 960 200" width="960" height="200" xmlns="http://www.w3.org/2000/svg" xmlns:xlink="http://www.w3.org/1999/xlink" version="1.1"><path d="M0 66L137 76L274 59L411 79L549 82L686 67L823 71L960 79L960 0L823 0L686 0L549 0L411 0L274 0L137 0L0 0Z" fill="#a7f3d0"></path><path d="M0 64L137 56L274 67L411 48L549 51L686 61L823 40L960 62L960 0L823 0L686 0L549 0L411 0L274 0L137 0L0 0Z" fill="#7fc7a8"></path><path d="M0 35L137 36L274 39L411 53L549 31L686 33L823 42L960 41L960 0L823 0L686 0L549 0L411 0L274 0L137 0L0 0Z" fill="#589d82"></path><path d="M0 23L137 34L274 27L411 38L549 32L686 37L823 31L960 35L960 0L823 0L686 0L549 0L411 0L274 0L137 0L0 0Z" fill="#32745d"></path><path d="M0 15L137 12L274 17L411 16L549 22L686 9L823 10L960 19L960 0L823 0L686 0L549 0L411 0L274 0L137 0L0 0Z" fill="#064e3b"></path></svg>