<svg id="visual" viewBox="0 0 960 200" width="960" height="200" xmlns="http://www.w3.org/2000/svg" xmlns:xlink="http://www.w3.org/1999/xlink" version="1.1"><path d="M0 132L137 122L274 139L411 119L549 116L686 131L823 127L960 119L960 201L823 201L686 201L549 201L411 201L274 201L137 201L0 201Z" fill="#a7f3d0"></path><path d="M0 134L137 142L274 131L411 150L549 147L686 137L823 158L960 136L960 201L823 201L686 201L549 201L411 201L274 201L137 201L0 201Z" fill="#7fc7a8"></path><path d="M0 163L137 162L274 159L411 145L549 167L686 165L823 156L960 157L960 201L823 201L686 201L549 201L411 201L274 201L137 201L0 201Z" fill="#589d82"></path><path d="M0 175L137 164L274 171L411 160L549 166L686 161L823 167L960 163L960 201L823 201L686 201L549 201L411 201L274 201L137 201L0 201Z" fill="#32745d"></path><path d="M0 183L137 186L274 181L411 182L549 176L686 189L823 188L960 179L960 201L823 201L686 201L549 201L411 201L274 201L137 201L0 201Z" fill="#064e3b"></path></svg>