<svg id="visual" viewBox="0 0 960 100" width="960" height="100" xmlns="http://www.w3.org/2000/svg" xmlns:xlink="http://www.w3.org/1999/xlink" version="1.1"><path d="M0 21L87 21L87 22L175 22L175 26L262 26L262 17L349 17L349 18L436 18L436 18L524 18L524 22L611 22L611 20L698 20L698 27L785 27L785 25L873 25L873 16L960 16L960 20L960 0L960 0L873 0L873 0L785 0L785 0L698 0L698 0L611 0L611 0L524 0L524 0L436 0L436 0L349 0L349 0L262 0L262 0L175 0L175 0L87 0L87 0L0 0Z" fill="#a7f3d0"></path><path d="M0 44L87 44L87 49L175 49L175 63L262 63L262 54L349 54L349 57L436 57L436 40L524 40L524 45L611 45L611 39L698 39L698 46L785 46L785 41L873 41L873 36L960 36L960 56L960 18L960 14L873 14L873 23L785 23L785 25L698 25L698 18L611 18L611 20L524 20L524 16L436 16L436 16L349 16L349 15L262 15L262 24L175 24L175 20L87 20L87 19L0 19Z" fill="#7fc7a8"></path><path d="M0 50L87 50L87 62L175 62L175 76L262 76L262 67L349 67L349 67L436 67L436 48L524 48L524 60L611 60L611 45L698 45L698 57L785 57L785 47L873 47L873 47L960 47L960 71L960 54L960 34L873 34L873 39L785 39L785 44L698 44L698 37L611 37L611 43L524 43L524 38L436 38L436 55L349 55L349 52L262 52L262 61L175 61L175 47L87 47L87 42L0 42Z" fill="#589d82"></path><path d="M0 67L87 67L87 74L175 74L175 89L262 89L262 78L349 78L349 76L436 76L436 67L524 67L524 74L611 74L611 53L698 53L698 73L785 73L785 61L873 61L873 66L960 66L960 81L960 69L960 45L873 45L873 45L785 45L785 55L698 55L698 43L611 43L611 58L524 58L524 46L436 46L436 65L349 65L349 65L262 65L262 74L175 74L175 60L87 60L87 48L0 48Z" fill="#32745d"></path><path d="M0 101L87 101L87 101L175 101L175 101L262 101L262 101L349 101L349 101L436 101L436 101L524 101L524 101L611 101L611 101L698 101L698 101L785 101L785 101L873 101L873 101L960 101L960 101L960 79L960 64L873 64L873 59L785 59L785 71L698 71L698 51L611 51L611 72L524 72L524 65L436 65L436 74L349 74L349 76L262 76L262 87L175 87L175 72L87 72L87 65L0 65Z" fill="#064e3b"></path></svg>