<svg id="visual" viewBox="0 0 960 100" width="960" height="100" xmlns="http://www.w3.org/2000/svg" xmlns:xlink="http://www.w3.org/1999/xlink" version="1.1"><path d="M0 31L22.8 32.3C45.7 33.7 91.3 36.3 137 37.2C182.7 38 228.3 37 274 36.7C319.7 36.3 365.3 36.7 411.2 37.5C457 38.3 503 39.7 548.8 38.5C594.7 37.3 640.3 33.7 686 33.2C731.7 32.7 777.3 35.3 823 36.2C868.7 37 914.3 36 937.2 35.5L960 35L960 0L937.2 0C914.3 0 868.7 0 823 0C777.3 0 731.7 0 686 0C640.3 0 594.7 0 548.8 0C503 0 457 0 411.2 0C365.3 0 319.7 0 274 0C228.3 0 182.7 0 137 0C91.3 0 45.7 0 22.8 0L0 0Z" fill="#064e3b"></path><path d="M0 28L22.8 26.7C45.7 25.3 91.3 22.7 137 21.2C182.7 19.7 228.3 19.3 274 19.5C319.7 19.7 365.3 20.3 411.2 22.7C457 25 503 29 548.8 29C594.7 29 640.3 25 686 24C731.7 23 777.3 25 823 25.7C868.7 26.3 914.3 25.7 937.2 25.3L960 25L960 0L937.2 0C914.3 0 868.7 0 823 0C777.3 0 731.7 0 686 0C640.3 0 594.7 0 548.8 0C503 0 457 0 411.2 0C365.3 0 319.7 0 274 0C228.3 0 182.7 0 137 0C91.3 0 45.7 0 22.8 0L0 0Z" fill="#6bb295"></path><path d="M0 16L22.8 15.7C45.7 15.3 91.3 14.7 137 14.5C182.7 14.3 228.3 14.7 274 16.5C319.7 18.3 365.3 21.7 411.2 22.5C457 23.3 503 21.7 548.8 20.3C594.7 19 640.3 18 686 17.5C731.7 17 777.3 17 823 16.5C868.7 16 914.3 15 937.2 14.5L960 14L960 0L937.2 0C914.3 0 868.7 0 823 0C777.3 0 731.7 0 686 0C640.3 0 594.7 0 548.8 0C503 0 457 0 411.2 0C365.3 0 319.7 0 274 0C228.3 0 182.7 0 137 0C91.3 0 45.7 0 22.8 0L0 0Z" fill="#a7f3d0"></path><path d="M0 16L22.8 15.2C45.7 14.3 91.3 12.7 137 13C182.7 13.3 228.3 15.7 274 16.7C319.7 17.7 365.3 17.3 411.2 16.5C457 15.7 503 14.3 548.8 14C594.7 13.7 640.3 14.3 686 14.3C731.7 14.3 777.3 13.7 823 13.7C868.7 13.7 914.3 14.3 937.2 14.7L960 15L960 0L937.2 0C914.3 0 868.7 0 823 0C777.3 0 731.7 0 686 0C640.3 0 594.7 0 548.8 0C503 0 457 0 411.2 0C365.3 0 319.7 0 274 0C228.3 0 182.7 0 137 0C91.3 0 45.7 0 22.8 0L0 0Z" fill="#6bb295"></path><path d="M0 4L22.8 3.8C45.7 3.7 91.3 3.3 137 4.2C182.7 5 228.3 7 274 7.7C319.7 8.3 365.3 7.7 411.2 7.5C457 7.3 503 7.7 548.8 8.2C594.7 8.7 640.3 9.3 686 9.7C731.7 10 777.3 10 823 9.8C868.7 9.7 914.3 9.3 937.2 9.2L960 9L960 0L937.2 0C914.3 0 868.7 0 823 0C777.3 0 731.7 0 686 0C640.3 0 594.7 0 548.8 0C503 0 457 0 411.2 0C365.3 0 319.7 0 274 0C228.3 0 182.7 0 137 0C91.3 0 45.7 0 22.8 0L0 0Z" fill="#064e3b"></path></svg>