<svg id="visual" viewBox="0 0 960 200" width="960" height="200" xmlns="http://www.w3.org/2000/svg" xmlns:xlink="http://www.w3.org/1999/xlink" version="1.1"><path d="M0 43L137 35L274 87L411 54L549 33L686 15L823 40L960 15L960 0L823 0L686 0L549 0L411 0L274 0L137 0L0 0Z" fill="#064e3b"></path><path d="M0 68L137 69L274 54L411 58L549 16L686 76L823 67L960 57L960 0L823 0L686 0L549 0L411 0L274 0L137 0L0 0Z" fill="#6bb295"></path><path d="M0 49L137 59L274 57L411 32L549 35L686 9L823 48L960 32L960 0L823 0L686 0L549 0L411 0L274 0L137 0L0 0Z" fill="#a7f3d0"></path><path d="M0 39L137 10L274 33L411 44L549 23L686 45L823 4L960 10L960 0L823 0L686 0L549 0L411 0L274 0L137 0L0 0Z" fill="#6bb295"></path><path d="M0 27L137 16L274 2L411 27L549 9L686 12L823 7L960 24L960 0L823 0L686 0L549 0L411 0L274 0L137 0L0 0Z" fill="#064e3b"></path></svg>