<svg id="visual" viewBox="0 0 960 200" width="960" height="200" xmlns="http://www.w3.org/2000/svg" xmlns:xlink="http://www.w3.org/1999/xlink" version="1.1"><path d="M0 77L120 77L120 85L240 85L240 102L360 102L360 80L480 80L480 94L600 94L600 97L720 97L720 89L840 89L840 84L960 84L960 103L960 201L960 201L840 201L840 201L720 201L720 201L600 201L600 201L480 201L480 201L360 201L360 201L240 201L240 201L120 201L120 201L0 201Z" fill="#065f46"></path><path d="M0 118L120 118L120 114L240 114L240 110L360 110L360 96L480 96L480 121L600 121L600 108L720 108L720 110L840 110L840 113L960 113L960 119L960 201L960 201L840 201L840 201L720 201L720 201L600 201L600 201L480 201L480 201L360 201L360 201L240 201L240 201L120 201L120 201L0 201Z" fill="#2e7b5f"></path><path d="M0 125L120 125L120 138L240 138L240 130L360 130L360 131L480 131L480 119L600 119L600 122L720 122L720 129L840 129L840 117L960 117L960 124L960 201L960 201L840 201L840 201L720 201L720 201L600 201L600 201L480 201L480 201L360 201L360 201L240 201L240 201L120 201L120 201L0 201Z" fill="#4c977a"></path><path d="M0 147L120 147L120 153L240 153L240 152L360 152L360 147L480 147L480 135L600 135L600 154L720 154L720 141L840 141L840 144L960 144L960 143L960 201L960 201L840 201L840 201L720 201L720 201L600 201L600 201L480 201L480 201L360 201L360 201L240 201L240 201L120 201L120 201L0 201Z" fill="#6ab596"></path><path d="M0 163L120 163L120 162L240 162L240 160L360 160L360 163L480 163L480 169L600 169L600 157L720 157L720 166L840 166L840 165L960 165L960 168L960 201L960 201L840 201L840 201L720 201L720 201L600 201L600 201L480 201L480 201L360 201L360 201L240 201L240 201L120 201L120 201L0 201Z" fill="#88d4b3"></path><path d="M0 186L120 186L120 174L240 174L240 178L360 178L360 188L480 188L480 183L600 183L600 170L720 170L720 177L840 177L840 184L960 184L960 189L960 201L960 201L840 201L840 201L720 201L720 201L600 201L600 201L480 201L480 201L360 201L360 201L240 201L240 201L120 201L120 201L0 201Z" fill="#a7f3d0"></path></svg>