<svg id="visual" viewBox="0 0 960 200" width="960" height="200" xmlns="http://www.w3.org/2000/svg" xmlns:xlink="http://www.w3.org/1999/xlink" version="1.1"><path d="M0 121L120 121L120 113L240 113L240 96L360 96L360 118L480 118L480 104L600 104L600 101L720 101L720 109L840 109L840 114L960 114L960 95L960 0L960 0L840 0L840 0L720 0L720 0L600 0L600 0L480 0L480 0L360 0L360 0L240 0L240 0L120 0L120 0L0 0Z" fill="#065f46"></path><path d="M0 80L120 80L120 84L240 84L240 88L360 88L360 102L480 102L480 77L600 77L600 90L720 90L720 88L840 88L840 85L960 85L960 79L960 0L960 0L840 0L840 0L720 0L720 0L600 0L600 0L480 0L480 0L360 0L360 0L240 0L240 0L120 0L120 0L0 0Z" fill="#2e7b5f"></path><path d="M0 73L120 73L120 60L240 60L240 68L360 68L360 67L480 67L480 79L600 79L600 76L720 76L720 69L840 69L840 81L960 81L960 74L960 0L960 0L840 0L840 0L720 0L720 0L600 0L600 0L480 0L480 0L360 0L360 0L240 0L240 0L120 0L120 0L0 0Z" fill="#4c977a"></path><path d="M0 51L120 51L120 45L240 45L240 46L360 46L360 51L480 51L480 63L600 63L600 44L720 44L720 57L840 57L840 54L960 54L960 55L960 0L960 0L840 0L840 0L720 0L720 0L600 0L600 0L480 0L480 0L360 0L360 0L240 0L240 0L120 0L120 0L0 0Z" fill="#6ab596"></path><path d="M0 35L120 35L120 36L240 36L240 38L360 38L360 35L480 35L480 29L600 29L600 41L720 41L720 32L840 32L840 33L960 33L960 30L960 0L960 0L840 0L840 0L720 0L720 0L600 0L600 0L480 0L480 0L360 0L360 0L240 0L240 0L120 0L120 0L0 0Z" fill="#88d4b3"></path><path d="M0 12L120 12L120 24L240 24L240 20L360 20L360 10L480 10L480 15L600 15L600 28L720 28L720 21L840 21L840 14L960 14L960 9L960 0L960 0L840 0L840 0L720 0L720 0L600 0L600 0L480 0L480 0L360 0L360 0L240 0L240 0L120 0L120 0L0 0Z" fill="#a7f3d0"></path></svg>